<?xml version="1.0" standalone="no"?><!DOCTYPE svg PUBLIC "-//W3C//DTD SVG 1.1//EN" "http://www.w3.org/Graphics/SVG/1.1/DTD/svg11.dtd"><svg class="icon" width="200px" height="200.00px" viewBox="0 0 1024 1024" version="1.1" xmlns="http://www.w3.org/2000/svg"><path d="M795.102261 705.573948l190.953243 0 0-63.480435-190.953243 0L795.102261 705.573948zM922.57507 36.469689c0-17.405926-7.679085-27.132766-24.061133-33.787973-12.798475-5.11939-25.085011-2.047756-39.931241 2.047756L30.77735 259.675088l891.79772 0L922.57507 36.469689zM922.57507 323.155523 30.77735 323.155523l0 636.852103c0 35.32379 28.668583 63.480435 63.480435 63.480435l828.317286 0c35.32379 0 63.480435-28.668583 63.480435-63.480435l0-190.953243-223.2054 0c-17.405926 0-31.740217-14.334292-31.740217-31.740217l0-127.472808c0-17.405926 14.334292-31.740217 31.740217-31.740217l223.2054 0 0-190.953243C986.567444 351.824106 957.89886 323.155523 922.57507 323.155523z" fill="#1296db" /></svg>