<?xml version="1.0" standalone="no"?><!DOCTYPE svg PUBLIC "-//W3C//DTD SVG 1.1//EN" "http://www.w3.org/Graphics/SVG/1.1/DTD/svg11.dtd"><svg class="icon" width="200px" height="200.00px" viewBox="0 0 1024 1024" version="1.1" xmlns="http://www.w3.org/2000/svg"><path d="M253.905 428.715c-0.914 50.335 8.239 126.3-51.251 126.3-41.184 0-42.101-49.422-42.101-49.422l-26.541-242.535s-19.221-127.216 162.912-130.878c182.13-3.663 201.349 154.673 201.349 154.673h153.756s35.694 7.321 34.779 50.335c-0.914 43.014-30.202 42.101-30.202 42.101h-358.769s-43.014-0.914-43.93 49.422zM727.077 891.819c-182.13 3.663-201.349-154.673-201.349-154.673h-153.756s-35.694-7.321-34.779-50.335c0.914-43.014 30.202-42.101 30.202-42.101h358.769s43.014 0.914 44.848-49.422c0.914-50.335-8.239-126.3 51.251-126.3 41.184 0 42.101 49.422 42.101 49.422l26.541 242.535c-0.914 0 18.307 127.216-163.825 130.878z" fill="#ffffff" /></svg>