<?xml version="1.0" standalone="no"?><!DOCTYPE svg PUBLIC "-//W3C//DTD SVG 1.1//EN" "http://www.w3.org/Graphics/SVG/1.1/DTD/svg11.dtd"><svg class="icon" width="200px" height="200.00px" viewBox="0 0 1024 1024" version="1.1" xmlns="http://www.w3.org/2000/svg"><path d="M1.264376 1.257151h1021.478473v1021.492923H1.264376z" fill="#769aff" /><path d="M1.264376 1.257151l1021.471248 1021.485698M1.264376 1022.742849L1022.735624 1.257151" fill="#769aff" /><path d="M904.801863 412.482777L584.698003 84.055712a43.306682 43.306682 0 0 0-30.496747-13.084485l-0.5491-0.007225a43.350032 43.350032 0 0 0-30.258323 12.304184L116.741636 479.639201a43.256107 43.256107 0 0 0-12.867735 26.595245l-36.775277 356.055486a43.364482 43.364482 0 0 0 46.471234 47.677809l356.886362-27.635645a43.335582 43.335582 0 0 0 26.913144-12.181359l406.644973-396.36379a43.350032 43.350032 0 0 0 0.787526-61.30417zM566.73664 501.870543c-44.773358 0-81.071784-36.305652-81.071784-81.06456 0-44.766133 36.291202-81.064559 81.071784-81.064559 44.773358 0 81.057334 36.298427 81.057334 81.064559 0 44.751683-36.283977 81.064559-81.057334 81.06456z" fill="#ffffff" /></svg>