<?xml version="1.0" standalone="no"?><!DOCTYPE svg PUBLIC "-//W3C//DTD SVG 1.1//EN" "http://www.w3.org/Graphics/SVG/1.1/DTD/svg11.dtd"><svg class="icon" width="200px" height="200.00px" viewBox="0 0 1024 1024" version="1.1" xmlns="http://www.w3.org/2000/svg"><path d="M974.8 702.9c29-143.4 20.1-264.1-16.7-368.1-60.2-161.5-145-256.5-267.7-298.4 0 0-206.3-69.7-214.7 78.1-8.4 94.8 211.9 248.2 211.9 248.2-2.8 97.6 30.7 92-12.6 263.3 40.5-29.1 33 8.5 71.8-73.7 0 0-12.8 115.3-28.5 184-73.2 98.1-170.5 164.1-315.1 167.3-153.4 19.5-285.9-74.1-348.5-329 2.4-125.4 74.1-259 223.1-401.5 33.2-52.4 36.9-91.8 27.9-125.5-39.3 55.5-77.1 92.8-111.5 92-10.6-7.4-49.9-5.5-108.7-16.7-20.9 107.4-21.7 150-11.3 156.1C4.7 358.9-4.5 473.3 7.3 599.7 30.5 825.9 202.5 970.5 492.5 1004c203.3-19.6 359.5-90.6 421-264.9 45.3 12.4 76.5 39.9 100.4 75.3 25.4-30.1-1.6-69.9-39.1-111.5z" fill="#13227a" /><path d="M403.2 563.4m-86.4 0a86.4 86.4 0 1 0 172.8 0 86.4 86.4 0 1 0-172.8 0Z" fill="#13227a" /></svg>