<?xml version="1.0" standalone="no"?><!DOCTYPE svg PUBLIC "-//W3C//DTD SVG 1.1//EN" "http://www.w3.org/Graphics/SVG/1.1/DTD/svg11.dtd"><svg class="icon" width="200px" height="200.00px" viewBox="0 0 1024 1024" version="1.1" xmlns="http://www.w3.org/2000/svg"><path d="M917.468 108.858h-809.253c-40.624 0-73.569 32.662-73.569 72.951v656.548c0 40.292 32.944 72.951 73.569 72.951h809.253c40.63 0 73.569-32.658 73.569-72.951v-656.548c0-40.292-32.944-72.951-73.569-72.951v0zM917.468 838.356h-809.253v-656.542h809.253v656.542zM292.138 437.132c40.633 0 73.568-32.662 73.568-72.947 0-40.31-32.94-72.955-73.568-72.955-40.593 0-73.57 32.644-73.57 72.955 0 40.292 32.972 72.947 73.57 72.947v0zM659.981 400.661l-218.011 298.085-113.054-152.189-183.919 255.333h735.685l-220.702-401.23zM659.981 400.661z" fill="#1195db" /></svg>