<?xml version="1.0" standalone="no"?><!DOCTYPE svg PUBLIC "-//W3C//DTD SVG 1.1//EN" "http://www.w3.org/Graphics/SVG/1.1/DTD/svg11.dtd"><svg class="icon" width="200px" height="185.68px" viewBox="0 0 1103 1024" version="1.1" xmlns="http://www.w3.org/2000/svg"><path d="M366.054754 888.077863C509.701671 739.226703 501.409044 743.84703 530.621519 743.84703L992.057777 743.84703C1016.121344 743.84703 1035.710543 724.571294 1035.710543 700.859589L1035.710543 112.570644C1035.710543 88.862011 1016.121344 69.577058 992.057777 69.577058L111.948367 69.577058C87.8848 69.577058 68.300209 88.862011 68.300209 112.570644L68.300209 700.836549C68.300209 724.54979 87.8848 743.822454 111.948367 743.822454L299.79199 743.822454C328.595732 743.84703 348.35393 759.044844 366.054754 888.077863L366.054754 888.077863ZM326.738078 1014.647808C326.738078 1014.647808 303.919104 812.148775 285.915609 812.148775L81.678769 812.148775C36.581652 812.148775 0 775.84833 0 731.113826L0 81.030341C0 36.298949 36.581652 0 81.678769 0L1021.084318 0C1066.187579 0 1102.769231 36.298949 1102.769231 81.030341L1102.769231 731.113826C1102.769231 775.849866 1066.187579 812.148775 1021.084318 812.148775L543.257915 812.148775C523.842363 812.148775 326.738078 1014.647808 326.738078 1014.647808L326.738078 1014.647808Z" fill="#ffffff" /></svg>