<?xml version="1.0" standalone="no"?><!DOCTYPE svg PUBLIC "-//W3C//DTD SVG 1.1//EN" "http://www.w3.org/Graphics/SVG/1.1/DTD/svg11.dtd"><svg class="icon" width="200px" height="200.00px" viewBox="0 0 1024 1024" version="1.1" xmlns="http://www.w3.org/2000/svg"><path d="M657.614594 626.642215c-6.465029-2.099753-47.587238-20.125702-21.87959-96.129188l-0.397029 0c66.906602-67.105117 118.085523-175.077649 118.085523-281.372015 0-163.446122-111.652216-249.141012-241.388707-249.141012-129.819377 0-240.85149 85.657028-240.85149 249.141012 0 106.748699 50.852497 215.143842 118.181711 282.088305 26.238726 67.041674-20.682362 91.917403-30.508838 95.335129C222.99438 674.524155 63.555389 761.697671 63.555389 847.78345c0 23.243611 0 9.173628 0 32.256585 0 117.298627 233.592402 143.959965 449.753376 143.959965 216.475118 0 447.134824-26.661337 447.134824-143.959965 0-23.082957 0-9.012975 0-32.256585C960.443588 759.098562 800.205422 672.577893 657.614594 626.642215z" fill="#ffffff" /></svg>