<?xml version="1.0" standalone="no"?><!DOCTYPE svg PUBLIC "-//W3C//DTD SVG 1.1//EN" "http://www.w3.org/Graphics/SVG/1.1/DTD/svg11.dtd"><svg class="icon" width="200px" height="200.00px" viewBox="0 0 1024 1024" version="1.1" xmlns="http://www.w3.org/2000/svg"><path d="M508.705977 1001.107617c62.361303 0 113.326045-28.179806 114.300232-112.717178L394.405745 888.390439C395.379932 972.928834 446.344674 1001.107617 508.705977 1001.107617zM577.976644 87.761809c0-0.047072 0.00307-0.092098 0.00307-0.13917 0-38.907125-31.541367-70.448492-70.448492-70.448492-38.908148 0-70.448492 31.541367-70.448492 70.448492 0 0.215918 0.014326 0.427742 0.016373 0.64366-151.895479 33.078373-266.545682 169.031764-266.545682 330.467527l0 294.267047L723.394594 160.160723C682.281221 124.999922 632.899534 99.443873 577.976644 87.761809zM903.218146 770.973216c-31.126928 0-56.358589-25.233708-56.358589-56.358589l0-285.328467c0-69.327972-20.345374-135.173632-55.565527-190.673667l81.637322-81.637322c0.332575-0.332575 0.332575-0.87288 0-1.206478l-32.003901-32.003901c-0.332575-0.332575-0.87288-0.332575-1.205455 0L62.09115 901.394614c-0.332575 0.332575-0.332575 0.87288 0 1.206478l32.003901 32.003901c0.332575 0.332575 0.87288 0.332575 1.206478 0l88.481194-88.481194 720.070896 0c16.507976 0 29.892821-13.382798 29.892821-29.892821l0-14.731516C933.745417 784.63947 920.077116 770.973216 903.218146 770.973216z" fill="#bfbfbf" /></svg>