<?xml version="1.0" standalone="no"?><!DOCTYPE svg PUBLIC "-//W3C//DTD SVG 1.1//EN" "http://www.w3.org/Graphics/SVG/1.1/DTD/svg11.dtd"><svg class="icon" width="200px" height="200.00px" viewBox="0 0 1024 1024" version="1.1" xmlns="http://www.w3.org/2000/svg"><path d="M863.895552 788.583424 724.955136 647.712768c38.122496-54.04672 60.84608-119.975936 60.84608-191.343616 0-181.94432-145.934336-329.905152-325.383168-329.905152-179.45088 0-325.383168 147.960832-325.383168 329.905152s145.932288 329.904128 325.383168 329.904128c69.95456 0 134.653952-22.7072 187.746304-60.918784l139.101184 141.034496c10.5216 10.661888 32.703488 12.919808 43.278336 2.250752l38.341632-38.873088C879.401984 818.99008 874.471424 799.362048 863.895552 788.583424L863.895552 788.583424zM182.042624 454.832128c0-157.517824 124.053504-285.672448 276.528128-285.672448 152.481792 0 276.528128 128.154624 276.528128 285.672448 0 157.522944-124.04736 285.672448-276.528128 285.672448C306.096128 740.503552 182.042624 612.355072 182.042624 454.832128L182.042624 454.832128z" fill="#ffffff" /></svg>