<?xml version="1.0" standalone="no"?><!DOCTYPE svg PUBLIC "-//W3C//DTD SVG 1.1//EN" "http://www.w3.org/Graphics/SVG/1.1/DTD/svg11.dtd"><svg class="icon" width="200px" height="200.00px" viewBox="0 0 1024 1024" version="1.1" xmlns="http://www.w3.org/2000/svg"><path d="M353.62 442.427c-44.7 0-81.065 36.366-81.065 81.065s36.366 81.065 81.065 81.065 81.066-36.366 81.066-81.065c0-44.7-36.366-81.065-81.066-81.065z m0 114.131c-18.232 0-33.065-14.833-33.065-33.065s14.833-33.065 33.065-33.065 33.066 14.833 33.066 33.065-14.833 33.065-33.066 33.065zM696.019 442.427c-44.7 0-81.066 36.366-81.066 81.065s36.366 81.065 81.066 81.065c44.699 0 81.065-36.366 81.065-81.065 0-44.7-36.366-81.065-81.065-81.065z m0 114.131c-18.232 0-33.066-14.833-33.066-33.065s14.834-33.065 33.066-33.065 33.065 14.833 33.065 33.065-14.833 33.065-33.065 33.065zM577.524 724.353H446.476c-17.673 0-32 14.327-32 32 0 17.673 14.327 32 32 32h131.048c17.673 0 32-14.327 32-32 0-17.673-14.327-32-32-32z" fill="#3caf36" /><path d="M1004.508 447.551c-15.988-24.027-40.225-40.988-67.638-48.115V379.81c0-52.467-37.027-95-82.703-95H544v-47.941c38.927-13.334 66.989-50.29 66.989-93.679 0-54.583-44.406-98.989-98.989-98.989s-98.989 44.406-98.989 98.989c0 43.389 28.062 80.345 66.989 93.679v47.941H169.833c-45.676 0-82.703 42.533-82.703 95v20.121a116.214 116.214 0 0 0-33.237 15.222c-53.401 35.536-67.936 107.894-32.4 161.296 15.598 23.441 39.047 40.161 65.637 47.58v198.919c0 52.467 37.027 95 82.703 95h684.333c45.676 0 82.703-42.533 82.703-95V624.591a116.153 116.153 0 0 0 35.238-15.744c53.402-35.537 67.937-107.895 32.401-161.296zM84.298 551.732a52.016 52.016 0 0 1-9.523-10.738c-14.802-22.243-10.294-51.795 9.523-68.742v79.48zM477.011 143.19c0-19.324 15.665-34.989 34.989-34.989s34.989 15.665 34.989 34.989-15.665 34.989-34.989 34.989-34.989-15.665-34.989-34.989z m395.858 679.758c0 18.924-11.077 31-18.703 31H169.833c-7.626 0-18.703-12.076-18.703-31V379.81c0-18.924 11.077-31 18.703-31h684.333c7.626 0 18.703 12.076 18.703 31v443.138z m68.833-271.2v-79.481a52.031 52.031 0 0 1 9.524 10.74c14.802 22.242 10.295 51.795-9.524 68.741z" fill="#3caf36" /></svg>