<?xml version="1.0" standalone="no"?><!DOCTYPE svg PUBLIC "-//W3C//DTD SVG 1.1//EN" "http://www.w3.org/Graphics/SVG/1.1/DTD/svg11.dtd"><svg class="icon" width="200px" height="200.00px" viewBox="0 0 1024 1024" version="1.1" xmlns="http://www.w3.org/2000/svg"><path d="M476.8 926.4 476.8 585.6l-169.6 160c-14.4 12.8-36.8 11.2-48-4.8-9.6-12.8-6.4-32 6.4-41.6L462.4 512 265.6 326.4c-11.2-11.2-14.4-28.8-6.4-41.6 11.2-17.6 35.2-19.2 48-6.4l169.6 158.4L476.8 102.4c0-27.2 32-41.6 52.8-24l222.4 198.4c14.4 12.8 14.4 33.6 0 46.4L556.8 512l198.4 185.6c12.8 12.8 12.8 33.6 0 46.4L531.2 950.4C510.4 969.6 476.8 955.2 476.8 926.4zM540.8 585.6l0 267.2 144-132.8L540.8 585.6zM540.8 174.4l0 262.4 144-134.4L540.8 174.4z" fill="#ffffff" /></svg>