<?xml version="1.0" standalone="no"?><!DOCTYPE svg PUBLIC "-//W3C//DTD SVG 1.1//EN" "http://www.w3.org/Graphics/SVG/1.1/DTD/svg11.dtd"><svg class="icon" width="200px" height="199.80px" viewBox="0 0 1025 1024" version="1.1" xmlns="http://www.w3.org/2000/svg"><path d="M512.001 10.952c-272.869 0-496.125 223.255-496.125 496.125s223.256 496.125 496.125 496.125 496.125-223.256 496.125-496.125-223.256-496.125-496.125-496.125v0zM512.001 967.765c-253.378 0-460.687-207.309-460.687-460.687s207.309-460.688 460.687-460.688 460.688 207.309 460.688 460.688-207.31 460.687-460.688 460.687v0z" fill="#707070" /><path d="M411.004 416.711l-88.593 90.366 90.366 90.367c47.841-49.612 47.841-131.12-1.772-180.732v0 0z" fill="#707070" /><path d="M501.369 328.117v0l-44.298 44.298c74.419 74.419 74.419 194.905 0 269.324l44.298 44.298c99.225-99.225 99.225-258.695 0-357.921v0z" fill="#707070" /><path d="M589.963 237.752l-44.298 44.297c124.031 124.031 124.031 324.252 0 448.284l44.298 44.297c148.837-147.068 148.837-388.042 0-536.878v0 0z" fill="#707070" /></svg>